PathFileType	4	(X/Y/Z)	OpenSim_Sub05_CSBaseline_Magnet.trc
DataRate	CameraRate	NumFrames	NumMarkers	Units	OrigDataRate	OrigDataStartFrame	OrigNumFrames
100	100	30	8	m	100	2640	10557
Frame#	Time	torso_imu_offset_imu	pelvis_imu_offset_imu	tibia_r_imu_offset_imu	femur_r_imu_offset_imu	tibia_l_imu_offset_imu	femur_l_imu_offset_imu	toes_r_imu_offset_imu	toes_l_imu_offset_imu
				X1	Y1	Z1	X2	Y2	Z2	X3	Y3	Z3	X4	Y4	Z4	X5	Y5	Z5	X6	Y6	Z6	X7	Y7	Z7	X8		Y8	Z8	

2640	26.39000000	-0.87308158	-0.30344289	0.13303508	-0.66534559	0.24596190	-0.62507778	-0.69280297	-0.38775967	-0.13910938	-0.84480121	-0.22705454	-0.00648795	-0.55527122	0.54062143	0.27506840	-0.54995258	0.30089803	0.28967790	-0.66681687	-0.05542149	-0.42848982	-0.69715900	-0.25833336	-0.34192736
2641	26.40000000	-0.87754930	-0.30030277	0.13225846	-0.66681117	0.24753870	-0.62652668	-0.69330284	-0.38593684	-0.14038525	-0.84486212	-0.22458731	-0.00590923	-0.55215155	0.55115243	0.26851029	-0.54903428	0.30266461	0.28242484	-0.67107802	-0.06479007	-0.41955714	-0.70198916	-0.25296538	-0.33584354
2642	26.41000000	-0.87933616	-0.29767331	0.12896984	-0.66770020	0.24727917	-0.62242491	-0.68763137	-0.39638769	-0.14000742	-0.84326668	-0.22149370	-0.01101210	-0.54225921	0.56533751	0.26797971	-0.54586493	0.30388412	0.27977836	-0.67347680	-0.06979864	-0.40229703	-0.70666448	-0.25107109	-0.32456151
2643	26.42000000	-0.87545227	-0.30077348	0.12727590	-0.66712502	0.24094708	-0.62057982	-0.67898302	-0.40782508	-0.13334019	-0.84849377	-0.21854313	-0.00769682	-0.53241453	0.56874924	0.26494352	-0.54918887	0.31254163	0.28472542	-0.69188844	-0.07894514	-0.38504303	-0.71010267	-0.24883044	-0.31737283
2644	26.43000000	-0.87376044	-0.30038670	0.12816119	-0.66848592	0.24038391	-0.62100398	-0.67186761	-0.42568267	-0.12876859	-0.84589922	-0.21272685	-0.00401295	-0.52830331	0.58256234	0.26447360	-0.55076111	0.31009133	0.28069719	-0.69292450	-0.08178776	-0.36677623	-0.72134008	-0.24330354	-0.30091762
2645	26.44000000	-0.87598616	-0.30120005	0.12468784	-0.67231436	0.23322715	-0.62042683	-0.66160060	-0.44400213	-0.12747948	-0.84390099	-0.20615196	0.00646405	-0.51231959	0.59335163	0.26305671	-0.54932956	0.31659679	0.27686259	-0.69735963	-0.09125926	-0.36303241	-0.72339267	-0.24350488	-0.28674230
2646	26.45000000	-0.87643607	-0.30061140	0.12137970	-0.67567348	0.23274827	-0.62227473	-0.65367464	-0.45096644	-0.11583099	-0.85187214	-0.20262077	0.01144491	-0.50292547	0.59951657	0.26032316	-0.54621023	0.31301964	0.27091895	-0.69818885	-0.10066918	-0.35667986	-0.73273092	-0.23686835	-0.26667039
2647	26.46000000	-0.87775380	-0.29926417	0.12112488	-0.67416325	0.23024248	-0.62351189	-0.64776667	-0.46192493	-0.10742711	-0.84604150	-0.20415416	0.02654966	-0.49182329	0.61479197	0.25523307	-0.55024356	0.32027410	0.25819310	-0.70146959	-0.10081217	-0.34410167	-0.74589958	-0.23259280	-0.24619529
2648	26.47000000	-0.88054177	-0.30196821	0.12074411	-0.67452063	0.23029777	-0.61943858	-0.63941208	-0.47274354	-0.10592642	-0.84674316	-0.20422278	0.03868183	-0.48330133	0.62365278	0.25345075	-0.55846749	0.31683463	0.25606508	-0.70542604	-0.10762031	-0.34090308	-0.75531124	-0.22928424	-0.21994435
2649	26.48000000	-0.87890739	-0.29871865	0.12313255	-0.67927448	0.23124222	-0.61848820	-0.63132976	-0.48652930	-0.09709868	-0.84578899	-0.20786544	0.03813120	-0.47350136	0.63292289	0.25164457	-0.55755776	0.31599200	0.25086333	-0.70659514	-0.11031308	-0.33343506	-0.76273922	-0.22585163	-0.18845186
2650	26.49000000	-0.88055035	-0.29879360	0.11869777	-0.67837671	0.23188003	-0.61633802	-0.62776167	-0.49713404	-0.08249104	-0.84111873	-0.20730417	0.04691677	-0.45525688	0.64309380	0.24810738	-0.56176169	0.32096084	0.23815905	-0.71054946	-0.11075112	-0.33299249	-0.77104461	-0.21578022	-0.15669177
2651	26.50000000	-0.87707793	-0.30040464	0.11489644	-0.67883178	0.22626665	-0.61788044	-0.61492800	-0.50491268	-0.07511854	-0.84686262	-0.20908418	0.05557108	-0.44556889	0.64965244	0.24747275	-0.56671297	0.31485485	0.23479349	-0.71239287	-0.11486970	-0.33110310	-0.78137934	-0.21200975	-0.12718395
2652	26.51000000	-0.88091764	-0.29693469	0.11271144	-0.68118611	0.22627750	-0.61570401	-0.60614128	-0.51443053	-0.07296667	-0.84379254	-0.21467978	0.06439217	-0.42750683	0.65825755	0.24623204	-0.57329440	0.30523950	0.22487124	-0.70827952	-0.11815929	-0.32723960	-0.78337542	-0.20401051	-0.08391523
2653	26.52000000	-0.88375687	-0.29381053	0.11184827	-0.68531961	0.22408037	-0.62109209	-0.60629969	-0.52759438	-0.08044387	-0.83988080	-0.21307764	0.06916041	-0.41745636	0.66391692	0.25082400	-0.57250540	0.29938188	0.21163228	-0.70810910	-0.12706520	-0.32988745	-0.78671567	-0.19519011	-0.05158314
2654	26.53000000	-0.88146499	-0.29332610	0.11308097	-0.68466086	0.22139792	-0.61929136	-0.60045446	-0.53233795	-0.08146560	-0.83775059	-0.21773937	0.06870253	-0.40428967	0.66903479	0.25673271	-0.57606695	0.29752055	0.20437026	-0.71139566	-0.12336957	-0.33354580	-0.79024014	-0.19207759	-0.02359150
2655	26.54000000	-0.88018815	-0.29293281	0.11815045	-0.68360834	0.21728345	-0.61964757	-0.60005403	-0.53483451	-0.07909829	-0.83720117	-0.22920822	0.07398199	-0.38358546	0.67943082	0.26695865	-0.58319945	0.29061082	0.19723341	-0.70865518	-0.12733859	-0.33064389	-0.79257408	-0.18066235	0.01325623
2656	26.55000000	-0.88458694	-0.28355070	0.11424963	-0.68399309	0.21667273	-0.61745948	-0.58987244	-0.54139324	-0.08409897	-0.83400383	-0.23521756	0.08225380	-0.36650762	0.68778061	0.27082635	-0.58946827	0.28126638	0.19487517	-0.70398668	-0.13115428	-0.32705879	-0.79453975	-0.17251495	0.03917535
2657	26.56000000	-0.88396609	-0.27895557	0.11923603	-0.68336360	0.21190458	-0.62485837	-0.58579114	-0.54528556	-0.07799766	-0.83037021	-0.24842059	0.08526879	-0.35424264	0.69196292	0.27461603	-0.59460116	0.27299785	0.18586453	-0.70091430	-0.12791889	-0.32893248	-0.78870708	-0.16235138	0.06171005
2658	26.57000000	-0.88633315	-0.27552198	0.12489477	-0.68538638	0.20985500	-0.62358594	-0.58332289	-0.55482655	-0.07316331	-0.82951568	-0.25439230	0.09348200	-0.33340401	0.69885832	0.27235332	-0.59726805	0.26201220	0.17822169	-0.70359216	-0.13177018	-0.32707117	-0.78893318	-0.15899559	0.07768235
2659	26.58000000	-0.88984425	-0.27428127	0.12091342	-0.68444105	0.20931667	-0.62489098	-0.57857457	-0.55945431	-0.06882699	-0.81996703	-0.25743364	0.09685964	-0.31854458	0.70141019	0.27924361	-0.60790804	0.25524011	0.17880733	-0.70788017	-0.12812241	-0.33193010	-0.78763515	-0.15921073	0.09177752
2660	26.59000000	-0.89034223	-0.27327912	0.12069019	-0.68291924	0.20415138	-0.62741985	-0.57413601	-0.56186772	-0.07101485	-0.81777348	-0.27015852	0.09562637	-0.30935726	0.70950203	0.27627108	-0.60969011	0.24123677	0.17239067	-0.71278903	-0.12586807	-0.33138136	-0.79091427	-0.15070542	0.10887999
2661	26.60000000	-0.88954949	-0.27074721	0.12572312	-0.68539485	0.20748644	-0.62480481	-0.57152769	-0.57035951	-0.07120715	-0.82015826	-0.27311517	0.10201833	-0.30581153	0.70972726	0.27397864	-0.61617851	0.23434769	0.16285873	-0.71092079	-0.12589608	-0.32580667	-0.79109919	-0.14958045	0.10433772
2662	26.61000000	-0.89378894	-0.26926369	0.12576449	-0.68425151	0.20310207	-0.62658892	-0.56781928	-0.57260665	-0.06740216	-0.81316841	-0.27683228	0.10216422	-0.30012342	0.71363519	0.26913307	-0.61789213	0.22477277	0.15515513	-0.70681727	-0.12921338	-0.32612739	-0.78952370	-0.14004325	0.10114092
2663	26.62000000	-0.89251316	-0.26245742	0.13111957	-0.68212814	0.20489304	-0.63546555	-0.56356689	-0.57400920	-0.07192207	-0.80702384	-0.28313468	0.10262047	-0.29783304	0.71676476	0.26479243	-0.62445350	0.22071671	0.15355861	-0.71026665	-0.12907743	-0.32930521	-0.79355450	-0.14193268	0.08598471
2664	26.63000000	-0.89790138	-0.25494743	0.13090430	-0.67897526	0.20310353	-0.62909924	-0.55875804	-0.58458829	-0.07692041	-0.80509507	-0.29295108	0.10742853	-0.30113353	0.71254069	0.26451136	-0.62638954	0.21198302	0.15288846	-0.71143166	-0.12754800	-0.32660028	-0.79501990	-0.14354243	0.08100120
2665	26.64000000	-0.89558192	-0.25116378	0.13244247	-0.68242623	0.20345156	-0.62772003	-0.55636125	-0.58517826	-0.06915544	-0.81001861	-0.29853998	0.11217328	-0.30834752	0.71092618	0.26681462	-0.63132499	0.20720947	0.14618988	-0.71311392	-0.13125074	-0.32343429	-0.79431523	-0.14015488	0.07368646
2666	26.65000000	-0.90142496	-0.25262741	0.13777980	-0.68143198	0.20078831	-0.62846485	-0.55253162	-0.58903337	-0.06851310	-0.80110159	-0.30617576	0.11608747	-0.32146185	0.71242923	0.26469089	-0.63254269	0.20096140	0.13484257	-0.71150055	-0.13261164	-0.32165794	-0.79662445	-0.13982017	0.05218848
2667	26.66000000	-0.90012556	-0.24222119	0.13889108	-0.68479765	0.20111944	-0.63251783	-0.54972878	-0.59236497	-0.06594143	-0.79420893	-0.31957212	0.11521185	-0.33125055	0.70414437	0.25944027	-0.63703006	0.19281900	0.13886972	-0.71399544	-0.13221835	-0.31802435	-0.79598224	-0.13903019	0.03095910
2668	26.67000000	-0.89571620	-0.23634239	0.13591993	-0.68191148	0.20086757	-0.63157074	-0.54691760	-0.59748575	-0.06582015	-0.79555494	-0.32539605	0.11421426	-0.34213802	0.69461506	0.26029061	-0.64103149	0.18887086	0.13694642	-0.71578760	-0.13407653	-0.31431762	-0.79264022	-0.14413104	0.01213957
2669	26.68000000	-0.89486470	-0.23556959	0.14027041	-0.68582695	0.19681836	-0.63444738	-0.54761132	-0.60106890	-0.06666410	-0.78782661	-0.33253335	0.11602724	-0.36142789	0.69472657	0.25182795	-0.64112777	0.18023064	0.12979957	-0.71473413	-0.13446238	-0.31922546	-0.79345337	-0.14698928	-0.00437553
